<svg xmlns="http://www.w3.org/2000/svg" xmlns:xlink="http://www.w3.org/1999/xlink" version="1.1" x="0px" y="0px" viewBox="0 0 24 27.1875" style="enable-background:new 0 0 24 21.75;" xml:space="preserve"><g><path d="M22,5h-2c-1.1,0-2.334-0.836-2.742-1.857l-0.516-1.285C16.334,0.836,15.1,0,14,0h-4C8.9,0,7.666,0.836,7.258,1.857   L6.742,3.143C6.334,4.164,5.1,5,4,5H2C0.9,5,0,5.9,0,7v11c0,1.1,0.9,2,2,2h11.816c-0.203-0.631-0.316-1.302-0.316-2   c0-0.443,0.045-0.876,0.13-1.295C13.116,16.883,12.574,17,12,17c-2.762,0-5-2.238-5-5s2.238-5,5-5c2.762,0,5,2.238,5,5   c0,0.086-0.022,0.165-0.025,0.249C17.879,11.773,18.907,11.5,20,11.5c1.51,0,2.896,0.519,4,1.384V7C24,5.9,23.1,5,22,5z"/><circle cx="12" cy="12" r="3"/><polygon points="20,14.143 19.049,17 16,17 18.46,18.848 17.526,21.75 20,19.966 22.47,21.75 21.538,18.848 24,17 20.949,17  "/></g><text x="0" y="36.75" fill="#000000" font-size="5px" font-weight="bold" font-family="'Helvetica Neue', Helvetica, Arial-Unicode, Arial, Sans-serif">Created by Hea Poh Lin</text><text x="0" y="41.75" fill="#000000" font-size="5px" font-weight="bold" font-family="'Helvetica Neue', Helvetica, Arial-Unicode, Arial, Sans-serif">from the Noun Project</text></svg>